HIERARCHY
ROOT Hips
{
	OFFSET 0.00000 0.00000 0.00000
	CHANNELS 6 Xposition Yposition Zposition Yrotation Zrotation Xrotation 
	JOINT Lumbar
	{
		OFFSET 0 0 0
		CHANNELS 3 Zrotation Xrotation Yrotation
		JOINT Neck
		{
			OFFSET 0.00 0.2701 0.00
			CHANNELS 3 Zrotation Xrotation Yrotation
			End Site
			{
				OFFSET 0.00 0.1379 0.00
			}
		}
		JOINT RightShoulder
		{
			OFFSET 0.0119 0.2289 0.1181
			CHANNELS 3 Zrotation Xrotation Yrotation
			JOINT RightElbow
			{
				OFFSET 0.00 -0.1475 0.00
				CHANNELS 2 Zrotation Yrotation
				JOINT RightWrist
				{
					OFFSET 0.00 -0.1605 0.00
					CHANNELS 2 Zrotation Xrotation
					End Site
					{
						OFFSET 0.0040 -0.1068 0.0006
					}
				}
			}
		}
		JOINT LeftShoulder
		{
			OFFSET 0.0119 0.2289 -0.1181
			CHANNELS 3 Zrotation Xrotation Yrotation
			JOINT LeftElbow
			{
				OFFSET 0.00 -0.1475 0.00
				CHANNELS 2 Zrotation Yrotation
				JOINT LeftWrist
				{
					OFFSET 0.00 -0.1605 0.00
					CHANNELS 2 Zrotation Xrotation
					End Site
					{
						OFFSET 0.0040 -0.1068 -0.0006
					}
				}
			}
		}
	}
	JOINT RightHip
	{
		OFFSET 0.0316 -0.0424 0.0458
		CHANNELS 3 Zrotation Xrotation Yrotation
		JOINT RightKnee
		{
			OFFSET 0.00 -0.2438 0.00
			CHANNELS 1 Zrotation
			JOINT RightAnkle
			{
				OFFSET 0.00 -0.2449 0.00
				CHANNELS 3 Zrotation Xrotation Yrotation
				End Site
				{
					OFFSET 0.1237 -0.0542 0.0051
				}
			}
		}
	}
	JOINT LeftHip
	{
		OFFSET 0.0316 -0.0424 -0.0458
		CHANNELS 3 Zrotation Xrotation Yrotation
		JOINT LeftKnee
		{
			OFFSET 0.00 -0.2438 0.00
			CHANNELS 1 Zrotation
			JOINT LeftAnkle
			{
				OFFSET 0.00 -0.2449 0.00
				CHANNELS 3 Zrotation Xrotation Yrotation
				End Site
				{
					OFFSET 0.1237 -0.0542 -0.0051
				}
			}
		}
	}
}
MOTION
Frames: 28
Frame Time: 0.02
-0.02203 -0.0053 -0.00839 30.02632 -30.32659 -9.99919 41.40099 1.13408 10.99092 -2.20702 6.72655 -0.80297 50.56421 -45.45712 64.07152 24.37953 111.90882 11.27854 4.03815 18.07549 25.26889 -40.94912 93.51297 -102.9997 8.15184 -4.68468 46.48381 -3.4163 -8.00006 -22.23995 -8.66679 -5.39872 -3.65101 54.71682 8.07322 -2.49498 -28.40635 -7.27267 2.33171 1.85444
-0.0226 -0.00527 -0.0091 30.06433 -30.35659 -9.99543 41.33787 1.06209 11.6267 -2.22655 7.13861 -0.80307 53.45521 -44.16613 64.2437 24.5879 107.20969 8.6361 4.07165 18.12707 25.01384 -41.19954 93.1152 -101.85981 7.26157 -4.55923 46.53843 -3.54688 -8.03887 -22.29021 -8.6768 -5.3986 -3.64909 54.77019 7.97692 -2.3597 -28.38091 -7.27177 2.30819 1.8418
-0.02318 -0.00521 -0.00984 29.81964 -30.33967 -9.92168 41.28184 1.00465 12.18005 -2.33345 7.52945 -0.80317 56.1934 -42.46985 64.14264 26.04138 100.7278 6.14402 3.81558 17.93775 24.84849 -41.10486 92.82899 -100.26873 6.35839 -4.18016 46.62594 -3.71914 -8.12938 -22.36722 -8.64898 -5.36784 -3.62766 54.73194 7.90951 -2.09014 -28.34996 -7.26806 2.30727 1.83897
-0.02375 -0.00517 -0.01057 29.69853 -30.3451 -9.87787 41.22281 0.93988 12.75118 -2.40492 7.92037 -0.80327 58.94369 -40.96591 64.17092 27.0265 95.25285 3.66064 3.66938 17.84666 24.65617 -41.143 92.50536 -98.8718 5.48346 -3.90643 46.70004 -3.86978 -8.18024 -22.43112 -8.63923 -5.35152 -3.61548 54.73581 7.82954 -1.87934 -28.32299 -7.26552 2.29576 1.83169
-0.02434 -0.00511 -0.0113 29.59252 -30.34585 -9.8397 41.16376 0.87849 13.40561 -2.46009 8.35417 -0.80337 61.96624 -39.4152 64.18145 27.61962 88.93881 0.80626 3.61576 17.80246 24.4055 -41.28303 92.11876 -97.48927 4.49466 -3.67343 46.76886 -4.03233 -8.29521 -22.49992 -8.62588 -5.33253 -3.60137 54.73576 7.74542 -1.67913 -28.28917 -7.26367 2.28622 1.82488
-0.02489 -0.00507 -0.01203 29.39126 -30.34563 -9.77442 41.10592 0.81328 13.86607 -2.56879 8.69146 -0.80346 64.36268 -37.8766 64.15549 29.31915 83.94936 -1.21488 3.30413 17.60344 24.29809 -41.12856 91.89317 -95.9889 3.74886 -3.29839 46.8558 -4.17989 -8.2923 -22.56433 -8.61094 -5.31198 -3.58674 54.72322 7.67712 -1.42621 -28.26872 -7.25963 2.27783 1.81929
-0.02527 -0.00507 -0.01271 28.98163 -30.35056 -9.64681 41.0517 0.7351 13.82104 -2.8101 8.78184 -0.80354 65.20562 -36.39788 64.18492 33.74315 83.09224 -1.06052 2.30196 17.0385 24.55883 -40.24734 92.07588 -94.18694 3.66105 -2.56126 46.98734 -4.27395 -7.92873 -22.61263 -8.60179 -5.29513 -3.57577 54.69398 7.64987 -1.03962 -28.28448 -7.25018 2.26544 1.81392
-0.0256 -0.00509 -0.01339 28.48948 -30.35688 -9.49561 40.99804 0.65239 13.58193 -3.10092 8.77287 -0.80362 65.39636 -34.96233 64.17295 39.2353 83.62474 -0.05147 1.05833 16.32622 24.96098 -39.0818 92.41904 -92.3028 3.82466 -1.69576 47.13534 -4.35165 -7.44904 -22.65502 -8.59225 -5.2778 -3.56497 54.65654 7.63714 -0.60774 -28.31435 -7.23861 2.25355 1.80947
-0.02595 -0.0051 -0.01407 28.04484 -30.36486 -9.35827 40.94261 0.57086 13.4252 -3.36492 8.79986 -0.80369 65.79162 -33.55203 64.11947 44.2577 83.4968 0.63044 -0.04326 15.67911 25.30273 -38.04432 92.69589 -90.51468 3.88516 -0.90958 47.27393 -4.43813 -7.03787 -22.69835 -8.58215 -5.26036 -3.55387 54.6259 7.61503 -0.21037 -28.3391 -7.22798 2.24252 1.80511
-0.02632 -0.00509 -0.01474 27.54682 -30.36123 -9.20454 40.89357 0.49324 13.28998 -3.65038 8.86529 -0.80377 66.56619 -31.92706 64.30297 49.27476 83.42629 1.06051 -1.29062 15.02901 25.63389 -36.99728 92.94983 -88.45714 3.89417 -0.02559 47.4218 -4.52078 -6.56288 -22.75003 -8.57347 -5.24302 -3.54287 54.57846 7.6052 0.24895 -28.35808 -7.21727 2.22805 1.79918
-0.02664 -0.00512 -0.01543 27.14559 -30.38308 -9.08109 40.83161 0.40661 13.06519 -3.90154 8.8269 -0.80384 66.40226 -30.77857 63.99677 54.51895 83.59221 2.21339 -2.28872 14.35598 26.01627 -35.91012 93.28662 -86.95419 4.07493 0.68133 47.55385 -4.6065 -6.19145 -22.78252 -8.56272 -5.22603 -3.53216 54.56602 7.57343 0.59013 -28.39264 -7.20638 2.22011 1.79634
-0.02682 -0.00523 -0.01614 27.02029 -30.47196 -9.0405 40.73069 0.29268 12.63917 -4.04723 8.53025 -0.80392 63.7718 -30.81675 62.26415 60.29664 84.06018 5.17697 -2.5311 13.6338 26.5329 -34.75843 93.82571 -86.94535 4.62847 0.87125 47.63764 -4.70872 -6.14463 -22.76375 -8.5424 -5.20785 -3.52064 54.64612 7.47253 0.57717 -28.46558 -7.19444 2.23399 1.80392
-0.02696 -0.00536 -0.01686 26.99864 -30.58709 -9.03278 40.61727 0.17042 12.13063 -4.15594 8.13221 -0.80398 60.23016 -31.35496 60.05855 66.22226 84.73123 8.83138 -2.51408 12.8991 27.09047 -33.58278 94.43949 -87.50955 5.35227 0.8766 47.70475 -4.8137 -6.20433 -22.72567 -8.5209 -5.1906 -3.50978 54.76313 7.34987 0.4462 -28.55389 -7.18261 2.25361 1.81416
-0.02712 -0.00548 -0.01758 26.93879 -30.69259 -9.0146 40.51164 0.0542 11.66091 -4.28035 7.77756 -0.80405 57.12447 -31.74679 58.1245 71.97167 85.32287 12.15576 -2.62027 12.18546 27.61111 -32.43451 95.01042 -87.85267 6.02635 0.96302 47.77982 -4.91447 -6.20769 -22.69617 -8.50279 -5.17464 -3.49981 54.86798 7.2403 0.37962 -28.63605 -7.17145 2.26787 1.82172
-0.02725 -0.0056 -0.01828 26.83909 -30.789 -8.97656 40.39727 -0.07169 11.17786 -4.41148 7.42941 -0.80412 53.88875 -31.80747 55.94449 78.2445 85.89908 15.58618 -2.71395 11.40087 28.21479 -31.20443 95.62551 -88.03062 6.59856 1.06613 47.85437 -5.02691 -6.23862 -22.6674 -8.47281 -5.15156 -3.48495 54.95384 7.11767 0.26935 -28.71547 -7.15717 2.29367 1.83547
-0.02743 -0.00573 -0.01903 26.84712 -30.90981 -8.98811 40.29795 -0.17934 10.70668 -4.51883 7.04666 -0.80419 50.73468 -32.66486 54.17177 83.41652 86.54829 18.93828 -2.76718 10.76397 28.65252 -30.14537 96.16316 -88.68471 7.41241 1.08871 47.92524 -5.11627 -6.2413 -22.63248 -8.46705 -5.14335 -3.48027 55.08709 7.01695 0.22134 -28.8037 -7.14942 2.29695 1.83705
-0.02776 -0.00589 -0.01991 27.1362 -31.09785 -9.12795 40.24471 -0.23474 10.2805 -4.57161 6.57948 -0.80426 47.87511 -35.69396 53.58171 85.77275 87.25501 21.98432 -2.78466 10.53178 28.6285 -29.54571 96.47662 -90.55792 8.9158 0.93437 47.99484 -5.13804 -6.1196 -22.58651 -8.53042 -5.17781 -3.50476 55.35125 6.98111 0.37378 -28.9156 -7.15986 2.23529 1.80352
-0.02815 -0.00607 -0.02085 27.52858 -31.30829 -9.31671 40.20673 -0.2714 9.87229 -4.60073 6.08441 -0.80434 45.16307 -39.48722 53.42814 86.96024 88.03846 24.90498 -2.76635 10.45105 28.43422 -29.1248 96.70689 -92.88196 10.64248 0.70435 48.06036 -5.13713 -5.96981 -22.53489 -8.61785 -5.22687 -3.53923 55.66004 6.96801 0.59223 -29.03516 -7.17681 2.15113 1.75787
-0.02851 -0.00624 -0.02177 27.86865 -31.50449 -9.4837 40.16086 -0.31654 9.4612 -4.6395 5.61115 -0.80441 42.48539 -42.87219 53.11377 88.50886 88.84259 27.83136 -2.75559 10.30515 28.31274 -28.6347 96.96971 -94.97183 12.22474 0.50848 48.12444 -5.14884 -5.84724 -22.48499 -8.69297 -5.26805 -3.56831 55.94272 6.9452 0.78114 -29.14914 -7.19072 2.07801 1.71827
-0.02885 -0.00641 -0.02266 28.23626 -31.71912 -9.65026 40.11877 -0.36224 9.02192 -4.68309 5.09421 -0.80448 39.33974 -46.54318 52.62731 90.78814 89.42249 31.01363 -2.77463 10.1412 28.21161 -28.08924 97.259 -97.20832 13.99773 0.30844 48.20171 -5.15102 -5.66875 -22.4377 -8.77383 -5.31451 -3.60102 56.25192 6.91961 0.96627 -29.27263 -7.20512 2.00118 1.67624
-0.02926 -0.00658 -0.02362 28.56804 -31.89986 -9.82841 40.07235 -0.40209 8.65033 -4.70973 4.66486 -0.80455 37.22537 -49.7796 52.60531 91.25712 90.48191 33.60542 -2.72406 10.05357 28.02773 -27.70626 97.47046 -99.23524 15.42005 0.10007 48.25096 -5.16745 -5.59684 -22.38424 -8.84848 -5.35343 -3.62854 56.5152 6.90476 1.17366 -29.37779 -7.21986 1.92726 1.63667
-0.02982 -0.00669 -0.02473 28.78912 -31.98566 -10.03071 40.01248 -0.43134 8.43073 -4.71092 4.4689 -0.80461 37.84484 -51.7454 53.79381 87.09213 92.86153 34.75234 -2.51187 10.1174 27.65168 -27.69088 97.50399 -100.60061 15.85367 -0.09909 48.22201 -5.23025 -5.84173 -22.31237 -8.9 -5.36808 -3.63924 56.64725 6.92003 1.45021 -29.43143 -7.23556 1.86193 1.60432
-0.03043 -0.00678 -0.02591 28.96742 -32.03567 -10.24199 39.94749 -0.4551 8.28458 -4.69345 4.36549 -0.80467 39.51463 -53.22399 55.43001 81.13589 95.71191 35.27751 -2.22846 10.25651 27.19932 -27.83955 97.45901 -101.73 15.91937 -0.30504 48.16549 -5.30793 -6.19139 -22.23526 -8.94445 -5.37459 -3.64435 56.73005 6.94412 1.74237 -29.46599 -7.25107 1.80133 1.5754
-0.03102 -0.00689 -0.02706 29.15611 -32.09927 -10.44638 39.88326 -0.48067 8.1255 -4.67412 4.2302 -0.80474 40.76131 -54.84581 56.84157 75.93958 98.34245 35.98121 -1.96412 10.37651 26.78473 -27.9383 97.43813 -102.94844 16.13017 -0.51676 48.12275 -5.37776 -6.4823 -22.16225 -8.99226 -5.38478 -3.65205 56.83109 6.96057 2.0132 -29.50869 -7.2656 1.74164 1.54652
-0.03162 -0.00699 -0.0282 29.3872 -32.17505 -10.66464 39.82566 -0.5085 7.88143 -4.69636 4.05067 -0.80479 41.79036 -56.82153 58.35977 70.90683 101.02215 37.11733 -1.75289 10.44028 26.3498 -27.94103 97.46151 -104.26593 16.44224 -0.69645 48.07425 -5.45121 -6.81933 -22.0811 -9.0404 -5.39563 -3.65997 56.95158 6.9939 2.34909 -29.55433 -7.28486 1.66774 1.51022
-0.03222 -0.00709 -0.02938 29.51779 -32.21655 -10.85517 39.75347 -0.53056 7.83061 -4.62944 3.98592 -0.80486 43.51188 -57.93839 59.75364 65.15363 103.68335 37.21025 -1.41664 10.63424 25.94306 -28.17816 97.37737 -105.3074 16.45304 -0.9402 48.03166 -5.52118 -7.08553 -22.01656 -9.08569 -5.40289 -3.6659 57.01876 6.99288 2.54891 -29.5887 -7.29415 1.62547 1.49065
-0.03283 -0.00719 -0.03065 29.38627 -32.17282 -10.96952 39.63669 -0.53799 8.30407 -4.30801 4.21331 -0.80496 46.96068 -56.76307 60.71823 57.59703 106.4095 34.54474 -0.73675 11.19277 25.61907 -29.04012 96.99681 -105.70865 15.72152 -1.38677 48.0087 -5.57603 -7.13087 -21.99239 -9.12598 -5.40293 -3.66822 56.95484 6.9039 2.40064 -29.60092 -7.27597 1.66379 1.51383
-0.03345 -0.00728 -0.03195 29.15361 -32.09548 -11.05492 39.50626 -0.5399 8.96761 -3.90014 4.55348 -0.80506 51.05454 -54.74357 61.53573 49.43282 109.05861 30.85865 0.06272 11.87437 25.32975 -30.12751 96.51484 -105.82692 14.69922 -1.89232 47.9933 -5.62741 -7.1018 -21.98656 -9.16322 -5.39936 -3.66856 56.83794 6.77872 2.11037 -29.60166 -7.24774 1.7347 1.55416
